<?xml version="1.0" encoding="utf-8" ?>
<svg xmlns="http://www.w3.org/2000/svg" xmlns:xlink="http://www.w3.org/1999/xlink" width="1024" height="1024">
	<clipPath id="cl_3">
		<rect width="1024" height="1024" rx="512" ry="512"/>
	</clipPath>
	<g clip-path="url(#cl_3)">
		<path fill="#040201" transform="scale(2 2)" d="M167.035 407.793C157.791 401.998 148.634 396.127 140.2 389.176C73.3254 334.059 59.4731 235.95 105.122 163.213C188.201 30.8367 390.434 67.7075 424.238 216.593C452.728 342.074 342.262 451.488 218.929 426.7C213.115 425.531 207.481 423.892 201.76 422.365C195.459 419.178 183.453 415.571 175.54 412.044C174.859 412.106 174.318 412.1 173.701 412.422L174.332 412.921L174.211 413.443C171.621 411.905 169.04 410.049 167.035 407.793ZM260.145 426.274Q264.327 426.113 268.496 425.747Q272.664 425.381 276.81 424.811Q280.956 424.241 285.069 423.468Q289.182 422.696 293.252 421.722Q297.322 420.748 301.339 419.576Q305.356 418.404 309.311 417.036Q313.266 415.668 317.15 414.108Q321.033 412.548 324.835 410.799Q328.636 409.05 332.348 407.117Q336.059 405.183 339.672 403.07Q343.284 400.957 346.788 398.67Q350.292 396.382 353.68 393.925Q357.068 391.468 360.331 388.848Q363.594 386.228 366.724 383.451Q369.855 380.673 372.845 377.746Q375.836 374.819 378.679 371.748Q381.523 368.677 384.212 365.471Q386.901 362.265 389.43 358.93Q391.958 355.596 394.32 352.141Q396.682 348.687 398.872 345.121Q401.062 341.554 403.074 337.885Q405.086 334.216 406.916 330.452Q408.745 326.688 410.388 322.839Q412.031 318.99 413.483 315.065Q414.935 311.141 416.192 307.149Q417.45 303.158 418.51 299.109Q419.571 295.061 420.431 290.966Q421.292 286.87 421.95 282.738Q422.608 278.605 423.063 274.445Q423.518 270.285 423.768 266.107Q424.018 261.93 424.063 257.745Q424.108 253.561 423.948 249.379Q423.788 245.197 423.422 241.028Q423.057 236.859 422.487 232.714Q421.918 228.568 421.146 224.455Q420.373 220.342 419.4 216.272Q418.427 212.201 417.256 208.184Q416.084 204.166 414.717 200.211Q413.35 196.256 411.79 192.373Q410.23 188.489 408.482 184.687Q406.733 180.885 404.801 177.173Q402.868 173.462 400.755 169.849Q398.643 166.237 396.355 162.732Q394.068 159.228 391.612 155.84Q389.155 152.452 386.535 149.188Q383.916 145.925 381.139 142.794Q378.362 139.663 375.435 136.672Q372.508 133.681 369.438 130.837Q366.368 127.993 363.162 125.304Q359.956 122.614 356.622 120.085Q353.288 117.556 349.833 115.193Q346.379 112.831 342.813 110.641Q339.247 108.45 335.578 106.438Q331.909 104.425 328.146 102.595Q324.382 100.765 320.533 99.1215Q316.685 97.4782 312.76 96.0257Q308.835 94.5732 304.844 93.3151Q300.853 92.0569 296.805 90.996Q292.757 89.9352 288.661 89.0742Q284.566 88.2133 280.433 87.5543Q276.301 86.8953 272.141 86.4399Q267.981 85.9845 263.803 85.7337Q259.626 85.483 255.441 85.4375Q251.257 85.392 247.075 85.5518Q242.892 85.7117 238.723 86.0766Q234.553 86.4415 230.407 87.0106Q226.26 87.5797 222.146 88.3516Q218.032 89.1235 213.961 90.0963Q209.89 91.0692 205.872 92.2406Q201.854 93.412 197.898 94.7793Q193.942 96.1465 190.058 97.7061Q186.174 99.2658 182.371 101.014Q178.568 102.763 174.855 104.696Q171.143 106.629 167.53 108.741Q163.916 110.854 160.411 113.142Q156.906 115.429 153.517 117.886Q150.129 120.343 146.865 122.963Q143.601 125.583 140.469 128.36Q137.338 131.137 134.346 134.065Q131.355 136.992 128.51 140.063Q125.666 143.134 122.976 146.34Q120.286 149.547 117.756 152.882Q115.227 156.216 112.864 159.671Q110.501 163.126 108.311 166.693Q106.12 170.259 104.108 173.929Q102.095 177.599 100.265 181.363Q98.4342 185.127 96.7909 188.977Q95.1476 192.826 93.6951 196.752Q92.2426 200.677 90.9845 204.669Q89.7265 208.661 88.6658 212.71Q87.6051 216.759 86.7444 220.855Q85.8837 224.951 85.2251 229.085Q84.5664 233.218 84.1113 237.379Q83.6563 241.54 83.406 245.718Q83.1557 249.896 83.1107 254.081Q83.0657 258.266 83.2262 262.449Q83.3866 266.631 83.7521 270.801Q84.1176 274.971 84.6872 279.117Q85.2569 283.264 86.0294 287.378Q86.8018 291.491 87.7752 295.562Q88.7486 299.633 89.9205 303.651Q91.0925 307.669 92.4603 311.625Q93.828 315.581 95.3882 319.465Q96.9484 323.348 98.6973 327.151Q100.446 330.954 102.38 334.666Q104.313 338.378 106.426 341.991Q108.54 345.604 110.828 349.109Q113.116 352.614 115.573 356.002Q118.03 359.39 120.651 362.654Q123.271 365.918 126.049 369.049Q128.826 372.18 131.754 375.171Q134.682 378.162 137.753 381.006Q140.824 383.85 144.031 386.54Q147.238 389.229 150.573 391.758Q153.908 394.287 157.363 396.65Q160.819 399.012 164.385 401.202Q167.952 403.392 171.622 405.404Q175.293 407.417 179.057 409.246Q182.821 411.076 186.671 412.719Q190.521 414.362 194.446 415.814Q198.372 417.266 202.364 418.523Q206.356 419.781 210.406 420.841Q214.455 421.901 218.551 422.761Q222.647 423.621 226.781 424.28Q230.914 424.938 235.075 425.392Q239.236 425.847 243.414 426.096Q247.592 426.346 251.777 426.391Q255.963 426.435 260.145 426.274Z"/>
		<path fill="#FFC176" transform="scale(2 2)" d="M167.035 407.793C169.871 409.009 172.909 410.44 175.54 412.044C174.859 412.106 174.318 412.1 173.701 412.422L174.332 412.921L174.211 413.443C171.621 411.905 169.04 410.049 167.035 407.793Z"/>
		<path fill="#FFE9B3" transform="scale(2 2)" d="M242.205 126.188C278.799 111.761 318.989 128.527 333.588 165.348C334.872 168.588 335.644 172.198 337.119 175.324C346.57 200.622 338.656 217.177 325.963 237.63C311.101 261.578 297.878 286.358 283.615 310.632C281.512 314.212 275.768 327.174 271.112 318.081L270.555 317.889C269.32 317.736 268.13 317.405 266.927 317.098L266.789 317.747C267.748 320.782 269.331 324.466 272.335 325.964C281.331 330.453 286.621 315.915 289.786 310.356C293.757 303.383 298.147 296.51 301.843 289.399C315.514 296.822 328.903 304.729 342.275 312.673C350.195 317.378 358.125 323.614 366.968 326.393C365.757 330.135 355.071 344.113 352.12 347.176C350.351 349.013 348.043 350.208 346.066 351.811C337.925 358.412 331.413 363.232 322.74 369.212C339.335 376.22 338.838 362.055 345.781 361.79C348.942 363.275 345.836 366.254 344.387 367.732C335.089 377.214 328.588 377.122 317.026 370.788C310.736 375.469 299.977 378.474 292.43 380.613C262.865 388.995 221.177 386.124 193.698 370.788C188.76 373.739 185.189 377.119 178.903 375.49C176.819 374.951 166.471 369.445 170.483 366.387C174.14 365.945 177.398 375.283 186.027 370.788C188.12 370.237 195.909 364.676 198.523 363.097C201.82 361.141 205.082 359.129 208.343 357.114C209.143 350.524 208.315 342.153 206.693 335.706C215.537 327.667 226.494 321.355 215.325 309.812C213.92 309.449 212.431 309.254 211.001 308.998C206.629 309.428 201.792 308.908 197.522 307.909C193.997 302.623 189.627 289.434 183.763 288.194C173.949 286.12 170.285 301.991 166.105 307.909C156.909 310.62 143.741 307.729 143.426 321.068L141.547 321.992C138.735 318.446 136.638 314.963 134.814 310.804C104.804 242.372 134.683 164.88 202.578 135.615C209.713 132.539 235.807 123.64 242.205 126.188ZM314.929 143.702C273.348 102.494 203.194 132.695 203.822 190.14C203.987 205.231 209.529 218.779 218.77 230.5C228.864 243.304 234.792 256.482 242.643 270.755C247.019 278.71 251.663 286.528 256.08 294.465C259.203 300.077 263.509 312.202 269.559 313.921L269.818 313.695C269.31 310.628 237.098 252.888 229.29 240.744C226.301 236.095 222.269 232.31 219.008 227.884C210.382 216.175 207.696 198.254 209.878 184.136C216.388 142.011 264.302 116.294 302.722 136.225C305.034 137.425 313.353 143.676 314.929 143.702Z"/>
		<path fill="#040201" transform="scale(2 2)" d="M242.205 126.188C278.799 111.761 318.989 128.527 333.588 165.348C334.872 168.588 335.644 172.198 337.119 175.324C346.57 200.622 338.656 217.177 325.963 237.63C311.101 261.578 297.878 286.358 283.615 310.632C281.512 314.212 275.768 327.174 271.112 318.081L270.555 317.889C269.32 317.736 268.13 317.405 266.927 317.098C262.088 314.249 260.273 309.659 257.731 304.882L250.755 291.956L227.747 251.134C222.912 242.43 221.225 239.453 214.807 231.543C200.739 214.206 196.746 189.718 203.726 168.57C210.345 148.514 223.897 135.397 242.205 126.188ZM314.929 143.702C273.348 102.494 203.194 132.695 203.822 190.14C203.987 205.231 209.529 218.779 218.77 230.5C228.864 243.304 234.792 256.482 242.643 270.755C247.019 278.71 251.663 286.528 256.08 294.465C259.203 300.077 263.509 312.202 269.559 313.921L269.818 313.695C269.31 310.628 237.098 252.888 229.29 240.744C226.301 236.095 222.269 232.31 219.008 227.884C210.382 216.175 207.696 198.254 209.878 184.136C216.388 142.011 264.302 116.294 302.722 136.225C305.034 137.425 313.353 143.676 314.929 143.702Z"/>
		<path fill="#FE6D41" transform="scale(2 2)" d="M337.119 175.324C346.57 200.622 338.656 217.177 325.963 237.63C311.101 261.578 297.878 286.358 283.615 310.632C281.512 314.212 275.768 327.174 271.112 318.081L270.555 317.889C278.295 317.65 283.596 303.456 287.165 297.284L311.374 255.026C315.302 248.218 319.203 241.365 323.277 234.644C334.539 216.06 340.617 207.734 338.04 184.491C337.729 181.691 336.145 178.049 337.119 175.324Z"/>
		<path fill="#FFC176" transform="scale(2 2)" d="M269.559 313.921L269.818 313.695C269.31 310.628 237.098 252.888 229.29 240.744C226.301 236.095 222.269 232.31 219.008 227.884C210.382 216.175 207.696 198.254 209.878 184.136C216.388 142.011 264.302 116.294 302.722 136.225C305.034 137.425 313.353 143.676 314.929 143.702C332.335 159.332 340.039 190.442 331.457 212.607C328.156 221.132 322.321 228.999 317.746 236.949L287.86 288.957C285.168 293.592 282.534 298.267 279.924 302.949C277.721 306.901 275.256 314.849 269.559 313.921Z"/>
		<path fill="#040201" transform="scale(2 2)" d="M264.009 229.14C259.182 225.512 255.941 219.961 252.345 215.21C244.744 205.168 235.679 196.514 237.111 183.025C239.074 164.54 255.963 152.38 274.093 154.491C285.655 155.838 291.9 161.318 298.822 170.069C308.912 176.494 312.645 193.676 306.237 203.686C302.361 209.741 289.29 229.373 284.076 234.196C277.655 240.137 267.313 236.666 264.009 229.14Z"/>
		<path fill="white" transform="scale(2 2)" d="M298.822 170.069C308.912 176.494 312.645 193.676 306.237 203.686C302.361 209.741 289.29 229.373 284.076 234.196C277.655 240.137 267.313 236.666 264.009 229.14C266.111 229.927 268.28 230.584 270.555 230.406C280.15 229.131 283.968 220.56 289.02 213.468C298.181 200.606 301.831 199.351 303.82 183.903C302.825 178.858 301.363 174.549 298.822 170.069Z"/>
		<path fill="#FFC176" transform="scale(2 2)" d="M303.82 183.903C305.353 198.669 303.288 198.583 295.79 209.6C291.226 216.307 280.798 237.267 270.555 230.406C280.15 229.131 283.968 220.56 289.02 213.468C298.181 200.606 301.831 199.351 303.82 183.903Z"/>
		<path fill="#FFE9B3" transform="scale(2 2)" d="M248.925 204.505C240.132 193.338 236.348 183.241 245.447 170.137C253.886 157.985 273.255 153.89 285.529 162.541C295.984 167.044 303.247 182.385 298.619 193.187C296.413 198.335 289.044 207.335 285.388 212.372C282.67 216.116 273.937 231.566 266.927 225.93C260.607 223.62 252.859 210.111 248.925 204.505Z"/>
		<path fill="#FFC176" transform="scale(2 2)" d="M248.925 204.505C240.132 193.338 236.348 183.241 245.447 170.137C253.886 157.985 273.255 153.89 285.529 162.541C282.496 162.712 279.667 161.627 276.682 161.367C253.591 159.354 235.269 185.165 248.925 202.278C253.009 208.939 264.79 221.542 266.927 225.93C260.607 223.62 252.859 210.111 248.925 204.505Z"/>
		<path fill="#040201" transform="scale(2 2)" d="M268.353 170.2Q268.696 170.142 269.041 170.1Q269.386 170.059 269.733 170.034Q270.08 170.01 270.428 170.002Q270.775 169.994 271.123 170.004Q271.47 170.013 271.817 170.039Q272.164 170.066 272.509 170.109Q272.854 170.152 273.196 170.212Q273.539 170.272 273.878 170.349Q274.217 170.425 274.552 170.518Q274.887 170.611 275.217 170.721Q275.547 170.83 275.872 170.955Q276.196 171.08 276.514 171.221Q276.832 171.362 277.142 171.519Q277.453 171.675 277.756 171.846Q278.058 172.018 278.352 172.203Q278.646 172.389 278.93 172.589Q279.215 172.789 279.489 173.003Q279.764 173.216 280.027 173.443Q280.291 173.67 280.543 173.909Q280.795 174.148 281.036 174.4Q281.276 174.651 281.504 174.914Q281.731 175.177 281.946 175.45Q282.161 175.724 282.362 176.008Q282.563 176.291 282.75 176.585Q282.936 176.878 283.109 177.18Q283.281 177.482 283.439 177.792Q283.596 178.102 283.738 178.419Q283.88 178.736 284.007 179.06Q284.133 179.384 284.244 179.714Q284.354 180.044 284.449 180.378Q284.543 180.713 284.621 181.052Q284.699 181.391 284.76 181.733Q284.821 182.075 284.866 182.42Q284.91 182.765 284.938 183.112Q284.965 183.458 284.976 183.806Q284.987 184.153 284.98 184.501Q284.974 184.849 284.951 185.195Q284.927 185.542 284.887 185.888Q284.847 186.233 284.79 186.576Q284.733 186.919 284.659 187.259Q284.586 187.599 284.495 187.935Q284.405 188.27 284.299 188.601Q284.192 188.932 284.07 189.258Q283.947 189.583 283.809 189.902Q283.671 190.221 283.517 190.533Q283.364 190.845 283.195 191.149Q283.027 191.453 282.843 191.749Q282.66 192.044 282.463 192.33Q282.265 192.617 282.054 192.893Q281.843 193.169 281.618 193.435Q281.394 193.7 281.157 193.954Q280.919 194.209 280.67 194.451Q280.421 194.694 280.16 194.924Q279.899 195.154 279.628 195.371Q279.356 195.588 279.074 195.791Q278.792 195.994 278.501 196.184Q278.209 196.373 277.909 196.548Q277.608 196.723 277.299 196.884Q276.991 197.044 276.675 197.189Q276.359 197.333 276.036 197.463Q275.713 197.592 275.384 197.705Q275.056 197.819 274.722 197.916Q274.388 198.013 274.05 198.094Q273.712 198.175 273.37 198.239Q273.024 198.304 272.676 198.352Q272.328 198.4 271.978 198.43Q271.627 198.461 271.276 198.474Q270.925 198.487 270.573 198.483Q270.222 198.479 269.871 198.457Q269.52 198.436 269.17 198.397Q268.821 198.358 268.474 198.303Q268.127 198.247 267.783 198.174Q267.439 198.101 267.099 198.011Q266.759 197.921 266.424 197.814Q266.089 197.708 265.76 197.585Q265.43 197.462 265.108 197.323Q264.785 197.184 264.469 197.029Q264.153 196.874 263.846 196.704Q263.538 196.534 263.239 196.349Q262.94 196.164 262.651 195.964Q262.362 195.764 262.082 195.551Q261.803 195.337 261.535 195.11Q261.267 194.883 261.01 194.642Q260.753 194.402 260.509 194.15Q260.264 193.897 260.032 193.633Q259.8 193.368 259.582 193.093Q259.363 192.818 259.159 192.532Q258.954 192.246 258.764 191.95Q258.574 191.655 258.398 191.35Q258.223 191.045 258.062 190.732Q257.902 190.419 257.758 190.099Q257.613 189.779 257.484 189.451Q257.356 189.124 257.244 188.791Q257.131 188.458 257.035 188.12Q256.94 187.781 256.861 187.439Q256.782 187.096 256.72 186.75Q256.658 186.404 256.613 186.055Q256.569 185.707 256.541 185.356Q256.513 185.006 256.503 184.654Q256.493 184.303 256.5 183.951Q256.507 183.6 256.532 183.249Q256.556 182.898 256.598 182.549Q256.64 182.2 256.699 181.853Q256.758 181.507 256.834 181.164Q256.91 180.82 257.003 180.481Q257.095 180.142 257.205 179.808Q257.314 179.474 257.44 179.146Q257.566 178.817 257.708 178.496Q257.849 178.174 258.007 177.86Q258.164 177.545 258.337 177.239Q258.51 176.933 258.698 176.636Q258.886 176.339 259.088 176.051Q259.29 175.763 259.506 175.486Q259.722 175.209 259.952 174.942Q260.181 174.676 260.424 174.421Q260.666 174.167 260.921 173.924Q261.175 173.682 261.442 173.452Q261.708 173.223 261.985 173.007Q262.263 172.791 262.55 172.589Q262.838 172.386 263.135 172.199Q263.432 172.011 263.739 171.838Q264.045 171.665 264.359 171.508Q264.673 171.35 264.995 171.209Q265.317 171.067 265.645 170.941Q265.973 170.815 266.308 170.706Q266.642 170.596 266.981 170.504Q267.32 170.411 267.663 170.335Q268.006 170.259 268.353 170.2Z"/>
		<path fill="white" transform="scale(2 2)" d="M268.559 173.77Q268.814 173.716 269.071 173.675Q269.329 173.633 269.588 173.604Q269.847 173.575 270.107 173.559Q270.367 173.543 270.628 173.539Q270.888 173.536 271.149 173.545Q271.409 173.554 271.669 173.576Q271.929 173.598 272.187 173.633Q272.445 173.667 272.702 173.714Q272.958 173.762 273.212 173.821Q273.465 173.881 273.716 173.953Q273.966 174.025 274.213 174.109Q274.46 174.193 274.702 174.289Q274.945 174.385 275.182 174.493Q275.419 174.6 275.651 174.72Q275.883 174.839 276.109 174.969Q276.334 175.1 276.553 175.241Q276.772 175.382 276.984 175.534Q277.196 175.686 277.4 175.847Q277.605 176.009 277.801 176.181Q277.997 176.353 278.184 176.534Q278.372 176.715 278.55 176.905Q278.729 177.095 278.898 177.293Q279.067 177.492 279.226 177.698Q279.385 177.905 279.533 178.119Q279.682 178.333 279.82 178.554Q279.959 178.775 280.086 179.002Q280.213 179.23 280.329 179.463Q280.445 179.697 280.549 179.936Q280.654 180.174 280.746 180.418Q280.839 180.662 280.919 180.91Q281 181.157 281.069 181.409Q281.137 181.66 281.193 181.915Q281.249 182.17 281.293 182.427Q281.336 182.684 281.367 182.942Q281.398 183.201 281.416 183.461Q281.435 183.721 281.44 183.982Q281.446 184.242 281.439 184.503Q281.432 184.763 281.412 185.023Q281.392 185.283 281.359 185.542Q281.327 185.801 281.282 186.057Q281.237 186.314 281.179 186.568Q281.121 186.822 281.052 187.073Q280.982 187.325 280.899 187.572Q280.817 187.819 280.723 188.062Q280.629 188.305 280.523 188.544Q280.418 188.782 280.3 189.015Q280.183 189.247 280.054 189.474Q279.926 189.701 279.786 189.921Q279.647 190.141 279.497 190.354Q279.347 190.568 279.186 190.773Q279.026 190.979 278.856 191.176Q278.686 191.374 278.506 191.562Q278.327 191.751 278.138 191.931Q277.949 192.111 277.752 192.282Q277.555 192.452 277.35 192.613Q277.145 192.774 276.932 192.924Q276.719 193.075 276.499 193.215Q276.279 193.355 276.053 193.484Q275.826 193.613 275.594 193.73Q275.361 193.848 275.123 193.954Q274.885 194.061 274.642 194.155Q274.399 194.25 274.152 194.332Q273.905 194.415 273.654 194.485Q273.403 194.556 273.149 194.614Q272.892 194.673 272.633 194.719Q272.374 194.765 272.113 194.798Q271.851 194.831 271.589 194.851Q271.326 194.871 271.063 194.878Q270.8 194.886 270.537 194.88Q270.273 194.874 270.011 194.855Q269.748 194.837 269.487 194.805Q269.225 194.773 268.966 194.729Q268.706 194.684 268.449 194.627Q268.192 194.57 267.938 194.5Q267.684 194.43 267.434 194.348Q267.184 194.265 266.938 194.171Q266.693 194.076 266.452 193.97Q266.211 193.863 265.976 193.745Q265.741 193.627 265.511 193.497Q265.282 193.367 265.06 193.226Q264.837 193.085 264.622 192.934Q264.407 192.782 264.199 192.62Q263.992 192.458 263.793 192.285Q263.593 192.113 263.403 191.931Q263.212 191.75 263.031 191.559Q262.85 191.368 262.678 191.168Q262.506 190.968 262.345 190.761Q262.183 190.553 262.032 190.337Q261.881 190.122 261.741 189.899Q261.6 189.676 261.471 189.446Q261.342 189.217 261.224 188.981Q261.106 188.746 261 188.505Q260.894 188.264 260.8 188.018Q260.707 187.772 260.625 187.522Q260.543 187.271 260.474 187.017Q260.405 186.763 260.348 186.506Q260.291 186.249 260.247 185.989Q260.204 185.73 260.173 185.468Q260.142 185.207 260.123 184.944Q260.105 184.681 260.1 184.418Q260.095 184.155 260.103 183.891Q260.111 183.628 260.132 183.366Q260.153 183.103 260.186 182.842Q260.22 182.581 260.267 182.322Q260.313 182.062 260.373 181.806Q260.432 181.549 260.504 181.296Q260.576 181.043 260.66 180.793Q260.744 180.544 260.841 180.299Q260.938 180.054 261.046 179.814Q261.154 179.574 261.275 179.34Q261.395 179.105 261.526 178.877Q261.658 178.649 261.801 178.428Q261.943 178.206 262.097 177.992Q262.25 177.778 262.414 177.572Q262.578 177.366 262.752 177.168Q262.925 176.97 263.109 176.781Q263.292 176.592 263.484 176.412Q263.677 176.233 263.878 176.063Q264.079 175.893 264.288 175.733Q264.497 175.573 264.714 175.423Q264.931 175.274 265.155 175.135Q265.379 174.997 265.609 174.869Q265.84 174.742 266.076 174.626Q266.313 174.51 266.555 174.406Q266.797 174.302 267.043 174.21Q267.29 174.118 267.541 174.039Q267.792 173.959 268.047 173.892Q268.301 173.825 268.559 173.77Z"/>
		<path fill="#FFE9B3" transform="scale(2 2)" d="M208.343 357.114C216.648 352.345 224.755 347.193 232.927 342.197C257.136 327.397 254.61 330.712 277.851 344.202C291.653 352.214 308.384 362.323 322.74 369.212C339.335 376.22 338.838 362.055 345.781 361.79C348.942 363.275 345.836 366.254 344.387 367.732C335.089 377.214 328.588 377.122 317.026 370.788C310.736 375.469 299.977 378.474 292.43 380.613C262.865 388.995 221.177 386.124 193.698 370.788C188.76 373.739 185.189 377.119 178.903 375.49C176.819 374.951 166.471 369.445 170.483 366.387C174.14 365.945 177.398 375.283 186.027 370.788C188.12 370.237 195.909 364.676 198.523 363.097C201.82 361.141 205.082 359.129 208.343 357.114Z"/>
		<path fill="#040201" transform="scale(2 2)" d="M208.343 357.114C216.648 352.345 224.755 347.193 232.927 342.197C257.136 327.397 254.61 330.712 277.851 344.202C291.653 352.214 308.384 362.323 322.74 369.212C339.335 376.22 338.838 362.055 345.781 361.79C348.942 363.275 345.836 366.254 344.387 367.732C335.089 377.214 328.588 377.122 317.026 370.788C314.987 369.341 312.48 368.238 310.268 367.05C293.107 357.829 276.482 347.391 259.477 338.313C251.305 333.951 247.597 338.045 240.632 342.185L203.759 364.409C200.386 366.46 196.845 368.403 193.698 370.788C188.76 373.739 185.189 377.119 178.903 375.49C176.819 374.951 166.471 369.445 170.483 366.387C174.14 365.945 177.398 375.283 186.027 370.788C188.12 370.237 195.909 364.676 198.523 363.097C201.82 361.141 205.082 359.129 208.343 357.114Z"/>
		<path fill="#040201" transform="scale(2 2)" d="M211.001 308.998C211.768 306.262 225.399 298.976 228.147 297.299C230.983 295.568 244.475 285.348 245.963 288.518C247.502 291.797 237.607 296.168 235.535 297.407C228.741 301.469 221.936 305.45 215.325 309.812C213.92 309.449 212.431 309.254 211.001 308.998Z"/>
		<path fill="#FFE9B3" transform="scale(2 2)" d="M326.907 143.702C386.052 175.213 405.271 257.942 374.405 315.946C373.099 318.399 371.759 320.93 370.002 323.09C376.211 325.633 383.997 328.694 386.943 335.309C387.701 337.009 386.87 339.775 384.666 338.951C376.98 330.613 379.943 331.154 366.968 326.393C358.125 323.614 350.195 317.378 342.275 312.673C328.903 304.729 315.514 296.822 301.843 289.399C302.348 288.095 302.991 287.082 303.82 285.975C310.7 270.714 323.018 253.194 331.756 238.663C345.515 215.781 351.608 197.07 341.435 169.976C337.745 160.152 332.085 152.536 326.907 143.702Z"/>
		<path fill="#040201" transform="scale(2 2)" d="M303.82 285.975C316.91 292.757 329.608 300.447 342.245 308.038C351.517 313.608 359.769 319.379 370.002 323.09C376.211 325.633 383.997 328.694 386.943 335.309C387.701 337.009 386.87 339.775 384.666 338.951C376.98 330.613 379.943 331.154 366.968 326.393C358.125 323.614 350.195 317.378 342.275 312.673C328.903 304.729 315.514 296.822 301.843 289.399C302.348 288.095 302.991 287.082 303.82 285.975Z"/>
		<path fill="#158AC0" transform="scale(2 2)" d="M181.364 295.212C185.12 295.439 190.357 310.09 192.835 313.921C196.581 314.866 212.177 315.005 213.361 318.515C212.961 322.212 202.481 330.44 199.851 334.376L199.622 334.722C200.311 337.472 202.627 352.155 201.773 353.928C199.896 357.824 185.666 349.031 182.481 347.517C177.239 348.824 165.302 358.881 162.528 354.568C161.241 352.567 164.106 337.819 164.705 334.722C154.655 325.122 141.248 317.826 160.347 315.358L170.946 313.921C172.818 309.453 178.165 297.771 181.364 295.212Z"/>
		<path fill="#FFDC74" transform="scale(2 2)" d="M181.364 298.383C185.075 301.209 187.231 309.915 189.876 314.056C192.863 318.733 205.839 317.752 211.001 318.939C207.049 323.032 200.335 329.209 197.522 333.836C197.25 340.241 199.426 346.582 199.622 353.003C194.923 351.115 186.02 345.242 181.364 345.967C176.426 346.846 168.644 351.483 164.705 354.569C164.612 347.714 166.324 340.675 167.035 333.836C162.774 328.545 157.226 324.093 152.723 318.939C159.204 317.619 166.019 317.79 172.405 316.055C173.888 314.051 174.784 311.551 175.881 309.319L181.364 298.383Z"/>
		<path fill="#FFE9B3" transform="scale(2 2)" d="M186.027 370.788C183.425 369.24 169.21 367.286 168.125 362.387C169.611 359.734 179.376 355.536 182.481 354.569C185.826 355.965 195.825 361.092 198.523 363.097C195.909 364.676 188.12 370.237 186.027 370.788Z"/>
		<path fill="#FFE9B3" transform="scale(2 2)" d="M145.116 324.53C146.918 325.456 156.23 335.564 157.729 337.766C157.125 341.738 156.652 345.765 155.873 349.705C155.139 348.307 153.11 347.069 151.95 345.967C151.992 345.432 143.525 331.033 141.71 326.769L141.547 326.393C142.541 325.64 143.982 325.1 145.116 324.53Z"/>
		<path fill="#040201" transform="scale(2 2)" d="M141.547 321.992L143.426 321.068C143.855 322.358 144.233 323.464 145.116 324.53C143.982 325.1 142.541 325.64 141.547 326.393C137.942 327.427 129.396 330.819 127.969 334.594C127.486 335.872 126.793 341.484 124.558 340.658C121.895 339.673 123.815 334.876 124.673 333.246C127.98 326.961 135.128 323.995 141.547 321.992Z"/>
		<path fill="#040201" transform="scale(2 2)" d="M155.873 353.652C152.945 352.183 130.138 338.33 135.321 334.916C138.227 334.798 148.898 343.928 151.95 345.967C153.11 347.069 155.139 348.307 155.873 349.705C155.804 351.022 155.842 352.334 155.873 353.652Z"/>
		<path fill="#040201" transform="scale(2 2)" d="M370.002 337.766C371.242 337.521 372.183 337.738 372.777 338.957C372.398 341.597 357.214 350.583 354.345 353.003C352.484 353.231 351.649 351.781 351.976 350.075C353.852 347.064 365.652 339.239 370.002 337.766Z"/>
		<path fill="#FFE9B3" transform="scale(2 2)" d="M201.76 422.365C202.908 423.892 207.405 425.154 209.299 425.84C230.964 433.681 248.754 436.114 271.28 434.541C319.337 431.187 359.493 410.846 391.495 374.918C396.936 368.809 402.389 362.312 406.791 355.401C441.109 301.522 444.694 232.282 415.587 175.566C413.379 171.265 410.569 167.236 408.53 162.86L408.383 162.541C467.486 236.93 454.259 341.417 382.568 402.901C325.501 451.843 252.155 457.087 187.366 421.964C183.671 419.961 176.853 416.52 174.211 413.443L174.332 412.921L173.701 412.422C174.318 412.1 174.859 412.106 175.54 412.044C183.453 415.571 195.459 419.178 201.76 422.365Z"/>
	</g>
</svg>
