<?xml version="1.0" encoding="utf-8" ?>
<svg xmlns="http://www.w3.org/2000/svg" xmlns:xlink="http://www.w3.org/1999/xlink" width="1024" height="1024">
	<clipPath id="cl_3">
		<rect width="1024" height="1024" rx="512" ry="512"/>
	</clipPath>
	<g clip-path="url(#cl_3)">
		<path fill="#333332" transform="scale(2 2)" d="M70.4149 165.476C59.4145 97.6151 136.595 50.7792 192.818 91.807C218.804 110.77 230.957 147.729 220.029 178.244C217.324 185.795 213.09 191.637 208.766 198.242L171.669 255.523C170.791 256.888 169.452 258.517 168.884 260.018C168.213 262.767 165.232 264.952 165.005 267.456C166.81 266.453 167.799 264.695 170.129 264.705L170.465 264.988L170.314 265.759C172.904 265.717 172.047 265.901 171.32 269.153C173.032 266.597 174.638 263.166 177.029 261.216L177.668 261.253C182.12 252.965 187.415 244.312 193.184 236.849C200.279 236.982 221.566 235.912 226.963 237.927C227.388 238.086 227.413 238.027 227.838 237.937C222.624 231.896 215.507 231.028 208.014 231.015L196.615 231.023C197.987 228.454 199.671 226.089 200.982 223.472C210.596 210.231 221.974 193.52 227.838 178.366C235.865 179.217 244.942 182.129 253.001 183.783C253.132 181.966 253.076 180.185 253.001 178.366C245.108 176.545 237.153 174.577 229.37 172.335C229.783 169.759 230.192 167.187 230.707 164.629C256.33 171.802 251.631 172.857 275.109 166.691L313.105 156.932C326.871 153.351 330.903 151.423 345.125 151.419L453.375 151.423C463.969 151.407 471.117 147.941 471.442 159.265C471.774 170.83 471.499 182.476 471.499 194.05L471.5 398.467C471.503 406.834 475.003 417.027 465.315 416.946L341.977 416.826C317.825 416.824 295.31 423.435 271.934 429.164C255.118 433.285 261.149 433.755 245.519 430.237C222.783 425.12 198.277 416.81 175.144 416.827L57.4837 416.843C40.6513 416.844 40.9754 419.943 40.9635 403.239L40.9652 171.695C40.966 166.121 40.4228 159.518 41.2682 154.105C41.8977 150.076 60.1979 151.154 64.3855 151.43C64.3976 153.964 64.4261 156.499 64.3855 159.033L48.5662 159.033L48.5662 280.956C50.6259 280.86 52.644 280.86 54.7036 280.956L54.7036 165.476C59.8612 165.441 65.3052 165.965 70.4149 165.476ZM147.111 294.414C151.003 286.994 163.708 266.576 168.884 260.018C169.452 258.517 170.791 256.888 171.669 255.523L208.766 198.242C213.09 191.637 217.324 185.795 220.029 178.244C230.957 147.729 218.804 110.77 192.818 91.807C136.595 50.7792 59.4145 97.6151 70.4149 165.476C73.3813 179.371 80.5421 189.765 88.0596 201.532L135.755 276.756C139.529 282.649 143.094 288.677 147.111 294.414ZM266.838 395.959C271.419 393.831 277.006 392.664 281.858 391.22C294.213 387.541 306.556 384.213 318.976 380.814C332.777 377.037 330.945 376.558 345.043 376.525L382.756 376.515C390.319 376.516 398.529 377.197 405.957 375.763C424.962 372.094 439.353 349.816 426.965 332.676C426.206 331.624 424.887 329.737 423.584 329.519C426.828 338.015 427.63 345.649 423.776 354.138C414.695 374.138 392.953 370.236 374.789 370.227L344.566 370.208C334.348 370.198 331.837 369.848 322.016 372.883L260.673 391.085L260.673 424.225C262.706 423.526 264.718 422.782 266.838 422.39L266.838 395.959ZM463.509 263.252C463.457 261.336 463.42 259.438 463.509 257.523C447.774 255.809 435.623 257.215 422.839 267.453C409.222 278.36 400.91 301.368 413.093 316.319C415.466 319.232 418.229 321.851 420.687 324.703C422.357 322.128 401.614 298.782 423.544 275.897C436.17 262.721 447.683 263.64 463.509 263.252ZM370.443 159.033L370.43 194.756C370.427 205.71 367.507 220.57 382.299 222.856C382.156 222.4 382.257 222.55 381.944 222.208C374.771 214.361 376.783 208.973 376.791 198.924L376.805 165.476L463.509 165.476C463.408 163.307 463.351 161.203 463.509 159.033L370.443 159.033ZM402.54 235.286C406.551 243.091 408.5 251.309 405.78 259.943C403.22 268.067 399.818 268.649 395.156 274.555C385.281 287.066 389.966 304.869 402.54 313.275C401.882 311.706 401.198 310.142 400.581 308.557C392.701 299.212 394.246 280.628 405.552 274.71L410.051 268.215C412.913 259.723 414.259 251.326 409.458 243.068C408.393 241.237 404.484 235.807 402.54 235.286ZM54.7036 408.771L54.7036 294.414L86.4124 294.41C95.6809 294.407 105.093 293.542 114.154 295.763C108.422 285.626 94.4779 288.592 84.8009 288.605L48.5662 288.609L48.5662 408.771L51.624 408.771C52.6457 408.716 53.6801 408.761 54.7036 408.771ZM253.001 392.35C248.838 391.187 244.484 390.383 240.266 389.413L216.383 383.948C210.869 382.725 205.231 382.106 199.99 379.889C200.369 381.967 202.827 385.635 204.647 386.776C207.771 388.735 247.423 396.787 253.001 397.705C252.917 395.905 252.905 394.15 253.001 392.35ZM330.223 160.293L279.067 173.607C272.938 175.154 266.849 177.036 260.673 178.366L260.673 278.708L266.838 278.708L266.838 183.783C269.629 182.502 272.835 181.906 275.808 181.157L315.703 171.084C320.444 169.913 325.389 168.35 330.223 167.727C330.225 165.249 330.249 162.77 330.223 160.293Z"/>
		<path fill="#333332" transform="scale(2 2)" d="M70.4149 165.476C59.4145 97.6151 136.595 50.7792 192.818 91.807C218.804 110.77 230.957 147.729 220.029 178.244C217.324 185.795 213.09 191.637 208.766 198.242L171.669 255.523C170.791 256.888 169.452 258.517 168.884 260.018C163.708 266.576 151.003 286.994 147.111 294.414C143.094 288.677 139.529 282.649 135.755 276.756L88.0596 201.532C80.5421 189.765 73.3813 179.371 70.4149 165.476ZM174.34 131.807C196.742 164.568 159.812 198.747 130.597 181.813C131.397 183.389 134.008 184.957 135.52 185.822C161.803 200.842 194.801 177.656 186.305 148.713C184.662 143.116 179.542 134.667 174.34 131.807ZM148.616 277.305C146.12 273.872 144.138 269.899 141.909 266.275L103.595 205.557C97.5264 196.02 90.3107 186.66 86.4283 175.981C74.4013 142.899 95.4112 105.279 127.763 93.8627C148.369 86.5918 176.57 89.3488 193.47 104.007C195.411 105.69 197.469 109.213 199.99 109.892C177.383 79.7735 133.092 76.5525 103.895 98.6967C81.4478 115.721 70.8029 146.821 80.8348 173.558C84.5889 183.564 93.2245 195.142 99.0775 204.445L134.963 261.067C138.959 267.41 143.281 273.593 147.111 280.031C147.608 279.124 148.081 278.19 148.616 277.305Z"/>
		<path fill="#FD7069" transform="scale(2 2)" d="M148.616 277.305C146.12 273.872 144.138 269.899 141.909 266.275L103.595 205.557C97.5264 196.02 90.3107 186.66 86.4283 175.981C74.4013 142.899 95.4112 105.279 127.763 93.8627C148.369 86.5918 176.57 89.3488 193.47 104.007C195.411 105.69 197.469 109.213 199.99 109.892C216.599 126.361 220.282 158.383 211.101 179.347C207.248 188.144 197.868 200.61 192.279 209.192L170.726 242.723C163.277 254.176 155.598 265.56 148.616 277.305ZM130.597 181.813C131.397 183.389 134.008 184.957 135.52 185.822C161.803 200.842 194.801 177.656 186.305 148.713C184.662 143.116 179.542 134.667 174.34 131.807C196.742 164.568 159.812 198.747 130.597 181.813Z"/>
		<path fill="#333332" transform="scale(2 2)" d="M130.597 181.813C128.926 179.933 124.657 177.696 122.163 175.017C109.698 161.633 111.512 139.492 124.852 127.408C139.751 113.912 161.3 117.278 174.34 131.807C196.742 164.568 159.812 198.747 130.597 181.813Z"/>
		<path fill="white" transform="scale(2 2)" d="M145.211 126.599Q145.846 126.545 146.482 126.523Q147.119 126.501 147.756 126.509Q148.392 126.518 149.028 126.558Q149.664 126.598 150.297 126.669Q150.93 126.74 151.558 126.843Q152.187 126.945 152.81 127.077Q153.433 127.21 154.048 127.373Q154.664 127.537 155.271 127.73Q155.878 127.923 156.474 128.146Q157.071 128.368 157.656 128.62Q158.241 128.872 158.813 129.152Q159.385 129.432 159.943 129.74Q160.501 130.048 161.042 130.382Q161.584 130.717 162.109 131.078Q162.634 131.439 163.14 131.825Q163.647 132.212 164.133 132.622Q164.62 133.033 165.086 133.467Q165.553 133.901 165.997 134.357Q166.441 134.813 166.863 135.291Q167.284 135.769 167.682 136.266Q168.079 136.764 168.452 137.28Q168.824 137.797 169.171 138.331Q169.518 138.865 169.838 139.416Q170.158 139.967 170.451 140.532Q170.744 141.098 171.009 141.677Q171.273 142.256 171.509 142.848Q171.745 143.439 171.952 144.042Q172.159 144.644 172.336 145.256Q172.513 145.868 172.659 146.488Q172.806 147.108 172.922 147.734Q173.038 148.36 173.124 148.991Q173.209 149.622 173.263 150.257Q173.317 150.892 173.34 151.528Q173.363 152.165 173.355 152.801Q173.347 153.438 173.308 154.074Q173.268 154.71 173.198 155.343Q173.127 155.976 173.026 156.604Q172.924 157.233 172.792 157.856Q172.66 158.479 172.497 159.095Q172.335 159.711 172.142 160.318Q171.949 160.925 171.727 161.522Q171.505 162.119 171.254 162.704Q171.003 163.29 170.723 163.862Q170.444 164.434 170.136 164.992Q169.829 165.55 169.495 166.092Q169.161 166.634 168.8 167.159Q168.44 167.684 168.054 168.191Q167.668 168.698 167.258 169.185Q166.848 169.673 166.414 170.139Q165.981 170.606 165.525 171.051Q165.069 171.495 164.592 171.917Q164.115 172.339 163.617 172.737Q163.12 173.135 162.604 173.508Q162.088 173.881 161.554 174.228Q161.02 174.576 160.47 174.897Q159.919 175.217 159.354 175.511Q158.789 175.804 158.21 176.069Q157.631 176.335 157.039 176.571Q156.448 176.808 155.846 177.015Q155.244 177.222 154.632 177.4Q154.02 177.577 153.401 177.725Q152.781 177.872 152.155 177.989Q151.529 178.105 150.898 178.191Q150.267 178.277 149.632 178.332Q148.997 178.387 148.359 178.411Q147.722 178.434 147.085 178.427Q146.447 178.419 145.81 178.38Q145.174 178.341 144.54 178.271Q143.906 178.201 143.277 178.099Q142.647 177.998 142.023 177.866Q141.399 177.734 140.783 177.572Q140.166 177.409 139.558 177.217Q138.95 177.024 138.352 176.802Q137.755 176.58 137.168 176.329Q136.582 176.077 136.009 175.798Q135.436 175.518 134.877 175.211Q134.319 174.903 133.776 174.568Q133.233 174.234 132.707 173.873Q132.181 173.512 131.674 173.126Q131.167 172.74 130.679 172.329Q130.191 171.919 129.724 171.484Q129.257 171.05 128.811 170.594Q128.366 170.137 127.944 169.659Q127.521 169.182 127.123 168.684Q126.725 168.186 126.351 167.669Q125.978 167.152 125.63 166.617Q125.283 166.082 124.962 165.531Q124.641 164.98 124.348 164.414Q124.054 163.848 123.789 163.268Q123.524 162.688 123.287 162.096Q123.051 161.504 122.844 160.901Q122.636 160.297 122.459 159.685Q122.282 159.072 122.135 158.452Q121.988 157.831 121.871 157.204Q121.755 156.577 121.67 155.945Q121.584 155.313 121.53 154.678Q121.476 154.043 121.453 153.405Q121.43 152.768 121.438 152.13Q121.446 151.493 121.486 150.856Q121.525 150.22 121.596 149.586Q121.667 148.952 121.769 148.323Q121.871 147.693 122.003 147.07Q122.136 146.446 122.299 145.829Q122.462 145.213 122.655 144.605Q122.848 143.997 123.071 143.4Q123.294 142.802 123.545 142.216Q123.797 141.631 124.077 141.058Q124.358 140.485 124.666 139.927Q124.974 139.368 125.309 138.826Q125.644 138.283 126.005 137.758Q126.367 137.232 126.753 136.725Q127.14 136.218 127.551 135.731Q127.962 135.243 128.397 134.776Q128.831 134.31 129.288 133.865Q129.745 133.42 130.224 132.998Q130.702 132.576 131.2 132.179Q131.699 131.781 132.216 131.408Q132.733 131.035 133.268 130.688Q133.803 130.341 134.354 130.021Q134.906 129.7 135.472 129.407Q136.039 129.114 136.619 128.85Q137.199 128.585 137.791 128.349Q138.384 128.113 138.987 127.907Q139.591 127.7 140.203 127.523Q140.816 127.347 141.437 127.2Q142.057 127.054 142.684 126.938Q143.312 126.822 143.944 126.738Q144.576 126.653 145.211 126.599Z"/>
		<path fill="#CDD07D" transform="scale(2 2)" d="M70.4149 165.476C73.3813 179.371 80.5421 189.765 88.0596 201.532L135.755 276.756C139.529 282.649 143.094 288.677 147.111 294.414C151.003 286.994 163.708 266.576 168.884 260.018C168.213 262.767 165.232 264.952 165.005 267.456C166.81 266.453 167.799 264.695 170.129 264.705L170.465 264.988L170.314 265.759C172.904 265.717 172.047 265.901 171.32 269.153C173.032 266.597 174.638 263.166 177.029 261.216L177.668 261.253C182.12 252.965 187.415 244.312 193.184 236.849C200.279 236.982 221.566 235.912 226.963 237.927C227.388 238.086 227.413 238.027 227.838 237.937C231.913 247.241 230.386 251.241 230.693 261.039C231.102 274.074 240.948 283.289 253.001 286.322L253.006 351.803C253.007 362.664 253.3 373.614 253.001 384.467L218.639 376.664C214.795 375.795 208.919 375.107 205.465 373.679C205.251 372.068 204.02 370.652 203.775 368.915C202.54 360.165 205.167 354.533 196.615 348.295C188.956 335.65 182.231 335.293 168.301 335.309L148.274 335.337C142.211 335.345 133.786 336.308 128.781 332.046C118.226 322.608 126.924 304.639 121.15 291.814C112.487 278.947 100.568 280.948 86.6958 280.947L54.7036 280.956L54.7036 165.476C59.8612 165.441 65.3052 165.965 70.4149 165.476Z"/>
		<path fill="white" transform="scale(2 2)" d="M147.111 294.414C151.003 286.994 163.708 266.576 168.884 260.018C168.213 262.767 165.232 264.952 165.005 267.456C166.81 266.453 167.799 264.695 170.129 264.705L170.465 264.988L170.314 265.759C172.904 265.717 172.047 265.901 171.32 269.153C173.032 266.597 174.638 263.166 177.029 261.216L177.668 261.253C174.903 264.16 172.84 267.861 170.667 271.226L158.373 290.604C156.186 294.049 154.124 297.719 151.598 300.924C150.203 298.716 148.81 296.402 147.111 294.414Z"/>
		<path fill="white" transform="scale(2 2)" d="M121.15 291.814C130.032 294.576 128.799 313.498 128.819 319.885C128.831 323.879 129.209 328.081 128.781 332.046C118.226 322.608 126.924 304.639 121.15 291.814Z"/>
		<path fill="#CDD07D" transform="scale(2 2)" d="M227.838 178.366C235.865 179.217 244.942 182.129 253.001 183.783L253.01 268.485C253.012 271.872 253.197 275.332 253.001 278.708C249.973 277.278 247.132 275.665 244.265 273.948C233.55 263.917 243.016 248.574 234.089 234.049C232.667 232.863 231.419 231.025 230.03 229.71C222.135 222.239 211.015 223.231 200.982 223.472C210.596 210.231 221.974 193.52 227.838 178.366Z"/>
		<path fill="white" transform="scale(2 2)" d="M234.089 234.049C244.286 235.431 244.136 258.539 244.281 264.875C244.335 267.255 245.546 271.907 244.265 273.948C233.55 263.917 243.016 248.574 234.089 234.049Z"/>
		<path fill="white" transform="scale(2 2)" d="M196.615 348.295C205.167 354.533 202.54 360.165 203.775 368.915C204.02 370.652 205.251 372.068 205.465 373.679C195.674 370.558 198.821 356.864 196.615 348.295Z"/>
		<path fill="#6DC7C6" transform="scale(2 2)" d="M337.549 159.033C345.916 158.876 354.293 159.214 362.659 159.033L362.659 165.476L362.646 196.979C362.646 206.872 361.044 216.998 368.78 224.635C377.335 233.08 388.551 228.508 395.669 240.13C400.764 248.451 399.712 258.492 392.842 265.415C375.131 283.265 379.498 313.447 403.792 323.137C405.81 323.942 408.084 324.572 409.944 325.702C424.395 334.481 421.011 362.303 396.509 362.321L339.048 362.262C331.304 362.223 328.409 362.709 320.943 364.891L286.772 375.074C280.142 376.993 273.434 378.713 266.838 380.737C264.832 381.606 262.764 382.21 260.673 382.834L260.673 286.322C269.281 286.158 277.923 286.314 286.535 286.315L337.549 286.322L337.549 159.033Z"/>
		<path fill="white" transform="scale(2 2)" d="M337.549 159.033C345.916 158.876 354.293 159.214 362.659 159.033L362.659 165.476C361.608 165.847 346.617 165.475 344.263 165.476L344.282 274.637C344.304 291.293 346.331 293.16 326.774 293.166L310.967 293.168C296.277 293.169 281.521 293.471 266.838 293.158L266.838 380.737C264.832 381.606 262.764 382.21 260.673 382.834L260.673 286.322C269.281 286.158 277.923 286.314 286.535 286.315L337.549 286.322L337.549 159.033Z"/>
		<path fill="#FECB5B" transform="scale(2 2)" d="M54.7036 294.414L86.4124 294.41C95.6809 294.407 105.093 293.542 114.154 295.763C120.566 307.323 106.638 329.664 128.781 341.08C134.823 343.312 140.994 342.784 147.325 342.775L169.082 342.744C176.229 342.736 182.657 342.076 187.495 348.295C194.814 357.785 183.522 369.393 199.99 379.889C200.369 381.967 202.827 385.635 204.647 386.776C207.771 388.735 247.423 396.787 253.001 397.705L253.001 424.225C235.328 419.526 217.407 415.774 199.766 410.972C189.216 408.1 187.167 408.76 176.223 408.768L81.8952 408.77C71.8427 408.768 61.6583 408.409 51.624 408.771C52.6457 408.716 53.6801 408.761 54.7036 408.771L54.7036 294.414Z"/>
		<path fill="white" transform="scale(2 2)" d="M128.781 341.08C134.823 343.312 140.994 342.784 147.325 342.775L169.082 342.744C176.229 342.736 182.657 342.076 187.495 348.295C184.241 348.432 180.928 348.295 177.668 348.295C170.85 348.369 164.02 348.37 157.202 348.295C148.162 348.364 134.962 349.077 128.781 341.08Z"/>
		<path fill="#FD7069" transform="scale(2 2)" d="M420.687 324.703C422.357 322.128 401.614 298.782 423.544 275.897C436.17 262.721 447.683 263.64 463.509 263.252L463.509 408.771L339.767 408.762C323.82 408.756 320.695 409.591 305.132 413.25L266.838 422.39L266.838 395.959C271.419 393.831 277.006 392.664 281.858 391.22C294.213 387.541 306.556 384.213 318.976 380.814C332.777 377.037 330.945 376.558 345.043 376.525L382.756 376.515C390.319 376.516 398.529 377.197 405.957 375.763C424.962 372.094 439.353 349.816 426.965 332.676C426.206 331.624 424.887 329.737 423.584 329.519L420.687 324.703Z"/>
		<path fill="#CDD07D" transform="scale(2 2)" d="M463.509 165.476L463.509 249.093C433.528 248.614 431.221 250.902 410.051 268.215C412.913 259.723 414.259 251.326 409.458 243.068C408.393 241.237 404.484 235.807 402.54 235.286C393.999 226.614 395.949 226.701 382.299 222.856C382.156 222.4 382.257 222.55 381.944 222.208C374.771 214.361 376.783 208.973 376.791 198.924L376.805 165.476L463.509 165.476Z"/>
		<path fill="#FECB5B" transform="scale(2 2)" d="M330.223 167.727L330.223 278.708L266.838 278.708L266.838 183.783C269.629 182.502 272.835 181.906 275.808 181.157L315.703 171.084C320.444 169.913 325.389 168.35 330.223 167.727Z"/>
		<path fill="#CDD07D" transform="scale(2 2)" d="M405.552 274.71C398.85 290.481 398.515 292.772 400.581 308.557C392.701 299.212 394.246 280.628 405.552 274.71Z"/>
	</g>
</svg>
